<svg width="88" height="28" viewBox="0 0 88 28" fill="none" xmlns="http://www.w3.org/2000/svg">
  <path d="M31.021 27.653V7.859h4.63v3.299h.212c.369-1.143 1.002-2.023 1.9-2.642.905-.627 1.938-.94 3.1-.94.263 0 .557.012.883.038.334.017.611.047.83.09v4.291c-.201-.068-.522-.128-.962-.18-.43-.06-.849-.09-1.253-.09-.87 0-1.653.184-2.348.554a4.11 4.11 0 0 0-1.623 1.508c-.395.644-.593 1.387-.593 2.23v11.636h-4.775ZM22.262 27.655V7.86h4.775v19.795h-4.775ZM0 27.654V.338h4.775v10.795h.198c.246-.481.594-.992 1.042-1.533.449-.55 1.055-1.018 1.82-1.405.766-.395 1.742-.593 2.929-.593 1.565 0 2.977.391 4.234 1.173 1.267.773 2.27 1.92 3.008 3.44.747 1.513 1.121 3.368 1.121 5.568 0 2.173-.365 4.02-1.095 5.541-.73 1.52-1.723 2.68-2.98 3.48-1.258.799-2.683 1.198-4.275 1.198-1.16 0-2.124-.189-2.889-.567-.765-.378-1.38-.833-1.846-1.366-.458-.541-.814-1.052-1.069-1.534h-.277v3.12H0Zm4.683-9.897c0 1.28.185 2.401.554 3.363.378.963.919 1.714 1.622 2.256.713.532 1.575.799 2.586.799 1.055 0 1.939-.275 2.651-.825.713-.559 1.249-1.319 1.61-2.281.369-.97.554-2.075.554-3.312 0-1.229-.18-2.32-.541-3.273-.36-.954-.897-1.701-1.61-2.243-.712-.54-1.6-.811-2.664-.811-1.02 0-1.886.262-2.599.786-.712.524-1.253 1.258-1.622 2.203-.36.945-.541 2.058-.541 3.338Z" fill="#BD007D"/>
  <ellipse cx="24.677" cy="2.744" rx="2.808" ry="2.743" fill="#29C840"/>
  <path d="M76.445 27.653V7.859h4.63v3.299h.212c.369-1.143 1.002-2.023 1.899-2.642.906-.627 1.94-.94 3.1-.94.264 0 .558.012.884.038.334.017.61.047.83.09v4.291c-.201-.068-.522-.128-.962-.18-.431-.06-.849-.09-1.253-.09-.871 0-1.654.184-2.348.554a4.11 4.11 0 0 0-1.623 1.508c-.396.644-.593 1.387-.593 2.23v11.636h-4.776ZM67.684 27.654V7.859h4.775v19.795h-4.775ZM45.424 27.653V.337h4.775v10.795h.198c.246-.481.593-.992 1.042-1.533.449-.55 1.055-1.018 1.82-1.405.765-.395 1.742-.593 2.929-.593 1.565 0 2.977.391 4.234 1.173 1.267.773 2.269 1.92 3.008 3.44.747 1.513 1.121 3.368 1.121 5.568 0 2.173-.365 4.02-1.095 5.541-.73 1.52-1.724 2.68-2.981 3.48C59.217 27.602 57.793 28 56.2 28c-1.16 0-2.124-.189-2.889-.567-.765-.378-1.38-.833-1.847-1.366-.457-.541-.813-1.052-1.068-1.534h-.277v3.12h-4.696Zm4.683-9.897c0 1.28.184 2.401.554 3.363.378.963.919 1.715 1.622 2.256.712.532 1.574.799 2.586.799 1.055 0 1.939-.275 2.651-.825.712-.558 1.249-1.319 1.61-2.281.369-.97.553-2.075.553-3.312 0-1.229-.18-2.32-.54-3.273-.361-.954-.897-1.701-1.61-2.243-.712-.54-1.6-.811-2.664-.811-1.02 0-1.887.262-2.599.786-.712.524-1.253 1.258-1.623 2.203-.36.945-.54 2.058-.54 3.338Z" fill="#BD007D"/>
  <ellipse cx="70.1" cy="2.744" rx="2.808" ry="2.743" fill="#29C840"/>
</svg>